# xmcd
#
# Track frame offsets:
#	150
#	26680
#	51597
#	64025
#	83402
#	112798
#	128068
#	138443
#	152594
#	171904
#	189735
#	207597
#	234069
#	250962
#	268701
#	287604
#	305008
#	317481
#
# Disc length: 4439 seconds
#
# Revision: 0
# Processed by: cddbd v1.5.2PL0 Copyright (c) Steve Scherf et al.
# Submitted via: EasyCDDAExtractor 16.0.6.1
#
DISCID=f9115512
DTITLE=Συλλογικός δίσκος - Κρητικές παραγγελιές 1
DYEAR=1900
DGENRE=Κρητική
TTITLE0=Άνευ ερμηνευτού - Συρτός [οργανικό, Λεωνίδας Κλάδος]
TTITLE1=Μάνουρας Μανώλης - Μ' αρνήθηκες [κοντιλιές]
TTITLE2=Καλομοίρης Ν.- Μανιάς Νίκος - Μικρή μου η φιλενάδα σου [πεντοζάλια]
TTITLE3=Κακλής Μανώλης-Σκορδαλός Θανάσης - Ολόκληρή μου τη ζωή [συρτός]
TTITLE4=Σωπασής Νίκος - Πλουσιογιώργης [ριζίτικο]
TTITLE5=Μανωλιούδης Γιώργης-Μελεσανάκης Ζ. - Θέλω να φύγω [συρτός]
TTITLE6=Αλεφαντίνος Ν.-Αλεφαντίνος Μ. - Σούστα [οργανικό]
TTITLE7=Σκουλάς Βασίλης - Δεν θέλει ο χωρισμός γιατρούς [συρτός]
TTITLE8=Σταυρακάκης Γιώργης - Σα φύγει η πάχνη του καϋμού [συρτός]
TTITLE9=Μαμαλάκης Στρατής-Τασούλα - Τούτο το μήνα [παραδοσιακό]
TTITLE10=Σμαραγδάκης Γιώργης-Καλεμάκης Γ. - Η περασά τσ' αγάπης σου [συρτός]
TTITLE11=Κουκάκης Γιώργης--Γερμάνης Γ. - Μαντινάδες
TTITLE12=Άνευ ερμηνευτού - Χανιώτικος πεντοζάλης [Κανάκης Κουκληνός]
TTITLE13=Παπαδάκης Γιώργης - Όσο βαρούν τα σίδερα [αμανές]
TTITLE14=Γωνιανάκης Νίκος - Αρχοντικό μου πρόσωπο [συρτός]
TTITLE15=Ρινακάκης Νίκος - Όνειρα περασμένα [κοντιλιές]
TTITLE16=Ζωϊδάκης Νίκος - Καλαματιανός
TTITLE17=Άνευ ερμηνευτού - Μαλεβιζιώτικος [Θανάσης Σκορδαλός]
EXTD=
EXTT0=
EXTT1=
EXTT2=
EXTT3=
EXTT4=
EXTT5=
EXTT6=
EXTT7=
EXTT8=
EXTT9=
EXTT10=
EXTT11=
EXTT12=
EXTT13=
EXTT14=
EXTT15=
EXTT16=
EXTT17=
PLAYORDER=
